<?xml version="1.0" encoding="UTF-8" standalone="no"?>
<!DOCTYPE svg PUBLIC "-//W3C//DTD SVG 1.1//EN"
 "http://www.w3.org/Graphics/SVG/1.1/DTD/svg11.dtd">
<!-- Generated by graphviz version 5.0.0 (20220707.1540)
 -->
<!-- Title: dependencies Pages: 1 -->
<svg width="567pt" height="247pt"
 viewBox="0.00 0.00 567.00 246.80" xmlns="http://www.w3.org/2000/svg" xmlns:xlink="http://www.w3.org/1999/xlink">
<g id="graph0" class="graph" transform="scale(1 1) rotate(0) translate(4 242.8)">
<title>dependencies</title>
<polygon fill="white" stroke="transparent" points="-4,4 -4,-242.8 563,-242.8 563,4 -4,4"/>
<text text-anchor="middle" x="279.5" y="-8.2" font-family="sans-serif" font-size="14.00">dependencies</text>
<g id="clust1" class="cluster">
<title>cluster_CoreModule</title>
<polygon fill="none" stroke="black" stroke-dasharray="1,5" points="8,-32.8 8,-230.8 551,-230.8 551,-32.8 8,-32.8"/>
</g>
<g id="clust7" class="cluster">
<title>cluster_CoreModule_exports</title>
<polygon fill="none" stroke="black" points="16,-170.8 16,-222.8 543,-222.8 543,-170.8 16,-170.8"/>
</g>
<g id="clust2" class="cluster">
<title>cluster_CoreModule_declarations</title>
<polygon fill="none" stroke="black" points="79,-40.8 79,-92.8 475,-92.8 475,-40.8 79,-40.8"/>
</g>
<!-- FooterComponent -->
<g id="node1" class="node">
<title>FooterComponent</title>
<polygon fill="#ffffb3" stroke="black" points="466.88,-84.8 349.12,-84.8 349.12,-48.8 466.88,-48.8 466.88,-84.8"/>
<text text-anchor="middle" x="408" y="-62.6" font-family="Times,serif" font-size="14.00">FooterComponent</text>
</g>
<!-- CoreModule -->
<g id="node4" class="node">
<title>CoreModule</title>
<polygon fill="#8dd3c7" stroke="black" points="313.27,-149.8 310.27,-153.8 289.27,-153.8 286.27,-149.8 226.73,-149.8 226.73,-113.8 313.27,-113.8 313.27,-149.8"/>
<text text-anchor="middle" x="270" y="-127.6" font-family="Times,serif" font-size="14.00">CoreModule</text>
</g>
<!-- FooterComponent&#45;&gt;CoreModule -->
<g id="edge1" class="edge">
<title>FooterComponent&#45;&gt;CoreModule</title>
<path fill="none" stroke="black" d="M372.34,-84.82C372.34,-102.17 372.34,-125.8 372.34,-125.8 372.34,-125.8 323.4,-125.8 323.4,-125.8"/>
<polygon fill="black" stroke="black" points="323.4,-122.3 313.4,-125.8 323.4,-129.3 323.4,-122.3"/>
</g>
<!-- HeaderComponent -->
<g id="node2" class="node">
<title>HeaderComponent</title>
<polygon fill="#ffffb3" stroke="black" points="330.75,-84.8 209.25,-84.8 209.25,-48.8 330.75,-48.8 330.75,-84.8"/>
<text text-anchor="middle" x="270" y="-62.6" font-family="Times,serif" font-size="14.00">HeaderComponent</text>
</g>
<!-- HeaderComponent&#45;&gt;CoreModule -->
<g id="edge2" class="edge">
<title>HeaderComponent&#45;&gt;CoreModule</title>
<path fill="none" stroke="black" d="M270,-84.91C270,-84.91 270,-103.79 270,-103.79"/>
<polygon fill="black" stroke="black" points="266.5,-103.79 270,-113.79 273.5,-103.79 266.5,-103.79"/>
</g>
<!-- NavComponent -->
<g id="node3" class="node">
<title>NavComponent</title>
<polygon fill="#ffffb3" stroke="black" points="191.16,-84.8 86.84,-84.8 86.84,-48.8 191.16,-48.8 191.16,-84.8"/>
<text text-anchor="middle" x="139" y="-62.6" font-family="Times,serif" font-size="14.00">NavComponent</text>
</g>
<!-- NavComponent&#45;&gt;CoreModule -->
<g id="edge3" class="edge">
<title>NavComponent&#45;&gt;CoreModule</title>
<path fill="none" stroke="black" d="M167.62,-84.82C167.62,-102.17 167.62,-125.8 167.62,-125.8 167.62,-125.8 216.58,-125.8 216.58,-125.8"/>
<polygon fill="black" stroke="black" points="216.58,-129.3 226.58,-125.8 216.58,-122.3 216.58,-129.3"/>
</g>
<!-- FooterComponent  -->
<g id="node5" class="node">
<title>FooterComponent </title>
<polygon fill="#fb8072" stroke="black" points="534.88,-214.8 413.12,-214.8 413.12,-178.8 534.88,-178.8 534.88,-214.8"/>
<text text-anchor="middle" x="474" y="-192.6" font-family="Times,serif" font-size="14.00">FooterComponent </text>
</g>
<!-- CoreModule&#45;&gt;FooterComponent  -->
<g id="edge4" class="edge">
<title>CoreModule&#45;&gt;FooterComponent </title>
<path fill="none" stroke="black" stroke-dasharray="5,2" d="M313.37,-137.8C363.77,-137.8 440.12,-137.8 440.12,-137.8 440.12,-137.8 440.12,-168.78 440.12,-168.78"/>
<polygon fill="black" stroke="black" points="436.63,-168.78 440.12,-178.78 443.63,-168.78 436.63,-168.78"/>
</g>
<!-- HeaderComponent  -->
<g id="node6" class="node">
<title>HeaderComponent </title>
<polygon fill="#fb8072" stroke="black" points="395.75,-214.8 270.25,-214.8 270.25,-178.8 395.75,-178.8 395.75,-214.8"/>
<text text-anchor="middle" x="333" y="-192.6" font-family="Times,serif" font-size="14.00">HeaderComponent </text>
</g>
<!-- CoreModule&#45;&gt;HeaderComponent  -->
<g id="edge5" class="edge">
<title>CoreModule&#45;&gt;HeaderComponent </title>
<path fill="none" stroke="black" stroke-dasharray="5,2" d="M291.88,-149.91C291.88,-149.91 291.88,-168.79 291.88,-168.79"/>
<polygon fill="black" stroke="black" points="288.38,-168.79 291.88,-178.79 295.38,-168.79 288.38,-168.79"/>
</g>
<!-- NavComponent  -->
<g id="node7" class="node">
<title>NavComponent </title>
<polygon fill="#fb8072" stroke="black" points="252.16,-214.8 143.84,-214.8 143.84,-178.8 252.16,-178.8 252.16,-214.8"/>
<text text-anchor="middle" x="198" y="-192.6" font-family="Times,serif" font-size="14.00">NavComponent </text>
</g>
<!-- CoreModule&#45;&gt;NavComponent  -->
<g id="edge6" class="edge">
<title>CoreModule&#45;&gt;NavComponent </title>
<path fill="none" stroke="black" stroke-dasharray="5,2" d="M239.35,-149.91C239.35,-149.91 239.35,-168.79 239.35,-168.79"/>
<polygon fill="black" stroke="black" points="235.85,-168.79 239.35,-178.79 242.85,-168.79 235.85,-168.79"/>
</g>
<!-- OrdersModule  -->
<g id="node8" class="node">
<title>OrdersModule </title>
<polygon fill="#fb8072" stroke="black" points="125.65,-214.8 24.35,-214.8 24.35,-178.8 125.65,-178.8 125.65,-214.8"/>
<text text-anchor="middle" x="75" y="-192.6" font-family="Times,serif" font-size="14.00">OrdersModule </text>
</g>
<!-- CoreModule&#45;&gt;OrdersModule  -->
<g id="edge7" class="edge">
<title>CoreModule&#45;&gt;OrdersModule </title>
<path fill="none" stroke="black" stroke-dasharray="5,2" d="M226.51,-137.8C177.97,-137.8 106.12,-137.8 106.12,-137.8 106.12,-137.8 106.12,-168.78 106.12,-168.78"/>
<polygon fill="black" stroke="black" points="102.62,-168.78 106.12,-178.78 109.62,-168.78 102.62,-168.78"/>
</g>
</g>
</svg>
