<?xml version="1.0" encoding="UTF-8" standalone="no"?>
<!DOCTYPE svg PUBLIC "-//W3C//DTD SVG 1.1//EN"
 "http://www.w3.org/Graphics/SVG/1.1/DTD/svg11.dtd">
<!-- Generated by graphviz version 5.0.0 (20220707.1540)
 -->
<!-- Title: dependencies Pages: 1 -->
<svg width="253pt" height="247pt"
 viewBox="0.00 0.00 253.00 246.80" xmlns="http://www.w3.org/2000/svg" xmlns:xlink="http://www.w3.org/1999/xlink">
<g id="graph0" class="graph" transform="scale(1 1) rotate(0) translate(4 242.8)">
<title>dependencies</title>
<polygon fill="white" stroke="transparent" points="-4,4 -4,-242.8 249,-242.8 249,4 -4,4"/>
<text text-anchor="middle" x="122.5" y="-8.2" font-family="sans-serif" font-size="14.00">dependencies</text>
<g id="clust1" class="cluster">
<title>cluster_SharedModule</title>
<polygon fill="none" stroke="black" stroke-dasharray="1,5" points="8,-32.8 8,-230.8 237,-230.8 237,-32.8 8,-32.8"/>
</g>
<g id="clust2" class="cluster">
<title>cluster_SharedModule_declarations</title>
<polygon fill="none" stroke="black" points="19,-40.8 19,-92.8 225,-92.8 225,-40.8 19,-40.8"/>
</g>
<g id="clust6" class="cluster">
<title>cluster_SharedModule_exports</title>
<polygon fill="none" stroke="black" points="16,-170.8 16,-222.8 229,-222.8 229,-170.8 16,-170.8"/>
</g>
<!-- BtnComponent -->
<g id="node1" class="node">
<title>BtnComponent</title>
<polygon fill="#ffffb3" stroke="black" points="216.56,-84.8 115.44,-84.8 115.44,-48.8 216.56,-48.8 216.56,-84.8"/>
<text text-anchor="middle" x="166" y="-62.6" font-family="Times,serif" font-size="14.00">BtnComponent</text>
</g>
<!-- SharedModule -->
<g id="node3" class="node">
<title>SharedModule</title>
<polygon fill="#8dd3c7" stroke="black" points="163.43,-149.8 160.43,-153.8 139.43,-153.8 136.43,-149.8 64.57,-149.8 64.57,-113.8 163.43,-113.8 163.43,-149.8"/>
<text text-anchor="middle" x="114" y="-127.6" font-family="Times,serif" font-size="14.00">SharedModule</text>
</g>
<!-- BtnComponent&#45;&gt;SharedModule -->
<g id="edge1" class="edge">
<title>BtnComponent&#45;&gt;SharedModule</title>
<path fill="none" stroke="black" d="M139.22,-84.91C139.22,-84.91 139.22,-103.79 139.22,-103.79"/>
<polygon fill="black" stroke="black" points="135.72,-103.79 139.22,-113.79 142.72,-103.79 135.72,-103.79"/>
</g>
<!-- TotalPipe -->
<g id="node2" class="node">
<title>TotalPipe</title>
<polygon fill="#ffffb3" stroke="black" points="97.44,-84.8 26.56,-84.8 26.56,-48.8 97.44,-48.8 97.44,-84.8"/>
<text text-anchor="middle" x="62" y="-62.6" font-family="Times,serif" font-size="14.00">TotalPipe</text>
</g>
<!-- TotalPipe&#45;&gt;SharedModule -->
<g id="edge2" class="edge">
<title>TotalPipe&#45;&gt;SharedModule</title>
<path fill="none" stroke="black" d="M81,-84.91C81,-84.91 81,-103.79 81,-103.79"/>
<polygon fill="black" stroke="black" points="77.5,-103.79 81,-113.79 84.5,-103.79 77.5,-103.79"/>
</g>
<!-- BtnComponent  -->
<g id="node4" class="node">
<title>BtnComponent </title>
<polygon fill="#fb8072" stroke="black" points="220.56,-214.8 115.44,-214.8 115.44,-178.8 220.56,-178.8 220.56,-214.8"/>
<text text-anchor="middle" x="168" y="-192.6" font-family="Times,serif" font-size="14.00">BtnComponent </text>
</g>
<!-- SharedModule&#45;&gt;BtnComponent  -->
<g id="edge3" class="edge">
<title>SharedModule&#45;&gt;BtnComponent </title>
<path fill="none" stroke="black" stroke-dasharray="5,2" d="M139.34,-149.91C139.34,-149.91 139.34,-168.79 139.34,-168.79"/>
<polygon fill="black" stroke="black" points="135.84,-168.79 139.34,-178.79 142.84,-168.79 135.84,-168.79"/>
</g>
<!-- TotalPipe  -->
<g id="node5" class="node">
<title>TotalPipe </title>
<polygon fill="#fb8072" stroke="black" points="97.93,-214.8 24.07,-214.8 24.07,-178.8 97.93,-178.8 97.93,-214.8"/>
<text text-anchor="middle" x="61" y="-192.6" font-family="Times,serif" font-size="14.00">TotalPipe </text>
</g>
<!-- SharedModule&#45;&gt;TotalPipe  -->
<g id="edge4" class="edge">
<title>SharedModule&#45;&gt;TotalPipe </title>
<path fill="none" stroke="black" stroke-dasharray="5,2" d="M81.38,-149.91C81.38,-149.91 81.38,-168.79 81.38,-168.79"/>
<polygon fill="black" stroke="black" points="77.88,-168.79 81.38,-178.79 84.88,-168.79 77.88,-168.79"/>
</g>
</g>
</svg>
