<?xml version="1.0" encoding="UTF-8" standalone="no"?>
<!DOCTYPE svg PUBLIC "-//W3C//DTD SVG 1.1//EN"
 "http://www.w3.org/Graphics/SVG/1.1/DTD/svg11.dtd">
<!-- Generated by graphviz version 5.0.0 (20220707.1540)
 -->
<!-- Title: dependencies Pages: 1 -->
<svg width="1159pt" height="174pt"
 viewBox="0.00 0.00 1159.00 173.80" xmlns="http://www.w3.org/2000/svg" xmlns:xlink="http://www.w3.org/1999/xlink">
<g id="graph0" class="graph" transform="scale(1 1) rotate(0) translate(4 169.8)">
<title>dependencies</title>
<polygon fill="white" stroke="transparent" points="-4,4 -4,-169.8 1155,-169.8 1155,4 -4,4"/>
<text text-anchor="middle" x="575.5" y="-8.2" font-family="sans-serif" font-size="14.00">dependencies</text>
<g id="clust1" class="cluster">
<title>cluster_OrdersModule</title>
<polygon fill="none" stroke="black" stroke-dasharray="1,5" points="8,-32.8 8,-157.8 1143,-157.8 1143,-32.8 8,-32.8"/>
</g>
<g id="clust8" class="cluster">
<title>cluster_OrdersModule_imports</title>
<polygon fill="none" stroke="black" points="860,-40.8 860,-92.8 1135,-92.8 1135,-40.8 860,-40.8"/>
</g>
<g id="clust2" class="cluster">
<title>cluster_OrdersModule_declarations</title>
<polygon fill="none" stroke="black" points="16,-40.8 16,-92.8 852,-92.8 852,-40.8 16,-40.8"/>
</g>
<!-- FormOrderComponent -->
<g id="node1" class="node">
<title>FormOrderComponent</title>
<polygon fill="#ffffb3" stroke="black" points="844.32,-84.8 699.68,-84.8 699.68,-48.8 844.32,-48.8 844.32,-84.8"/>
<text text-anchor="middle" x="772" y="-62.6" font-family="Times,serif" font-size="14.00">FormOrderComponent</text>
</g>
<!-- OrdersModule -->
<g id="node6" class="node">
<title>OrdersModule</title>
<polygon fill="#8dd3c7" stroke="black" points="647.65,-149.8 644.65,-153.8 623.65,-153.8 620.65,-149.8 550.35,-149.8 550.35,-113.8 647.65,-113.8 647.65,-149.8"/>
<text text-anchor="middle" x="599" y="-127.6" font-family="Times,serif" font-size="14.00">OrdersModule</text>
</g>
<!-- FormOrderComponent&#45;&gt;OrdersModule -->
<g id="edge1" class="edge">
<title>FormOrderComponent&#45;&gt;OrdersModule</title>
<path fill="none" stroke="black" d="M772,-84.83C772,-101.2 772,-122.8 772,-122.8 772,-122.8 657.65,-122.8 657.65,-122.8"/>
<polygon fill="black" stroke="black" points="657.65,-119.3 647.65,-122.8 657.65,-126.3 657.65,-119.3"/>
</g>
<!-- PageAddOrderComponent -->
<g id="node2" class="node">
<title>PageAddOrderComponent</title>
<polygon fill="#ffffb3" stroke="black" points="681.8,-84.8 516.2,-84.8 516.2,-48.8 681.8,-48.8 681.8,-84.8"/>
<text text-anchor="middle" x="599" y="-62.6" font-family="Times,serif" font-size="14.00">PageAddOrderComponent</text>
</g>
<!-- PageAddOrderComponent&#45;&gt;OrdersModule -->
<g id="edge2" class="edge">
<title>PageAddOrderComponent&#45;&gt;OrdersModule</title>
<path fill="none" stroke="black" d="M599,-84.91C599,-84.91 599,-103.79 599,-103.79"/>
<polygon fill="black" stroke="black" points="595.5,-103.79 599,-113.79 602.5,-103.79 595.5,-103.79"/>
</g>
<!-- PageEditOrderComponent -->
<g id="node3" class="node">
<title>PageEditOrderComponent</title>
<polygon fill="#ffffb3" stroke="black" points="498.03,-84.8 333.97,-84.8 333.97,-48.8 498.03,-48.8 498.03,-84.8"/>
<text text-anchor="middle" x="416" y="-62.6" font-family="Times,serif" font-size="14.00">PageEditOrderComponent</text>
</g>
<!-- PageEditOrderComponent&#45;&gt;OrdersModule -->
<g id="edge3" class="edge">
<title>PageEditOrderComponent&#45;&gt;OrdersModule</title>
<path fill="none" stroke="black" d="M416,-84.83C416,-101.2 416,-122.8 416,-122.8 416,-122.8 539.96,-122.8 539.96,-122.8"/>
<polygon fill="black" stroke="black" points="539.96,-126.3 549.96,-122.8 539.96,-119.3 539.96,-126.3"/>
</g>
<!-- PageListOrdersComponent -->
<g id="node4" class="node">
<title>PageListOrdersComponent</title>
<polygon fill="#ffffb3" stroke="black" points="316.42,-84.8 147.58,-84.8 147.58,-48.8 316.42,-48.8 316.42,-84.8"/>
<text text-anchor="middle" x="232" y="-62.6" font-family="Times,serif" font-size="14.00">PageListOrdersComponent</text>
</g>
<!-- PageListOrdersComponent&#45;&gt;OrdersModule -->
<g id="edge4" class="edge">
<title>PageListOrdersComponent&#45;&gt;OrdersModule</title>
<path fill="none" stroke="black" d="M232,-84.91C232,-104.14 232,-131.8 232,-131.8 232,-131.8 540.27,-131.8 540.27,-131.8"/>
<polygon fill="black" stroke="black" points="540.27,-135.3 550.27,-131.8 540.27,-128.3 540.27,-135.3"/>
</g>
<!-- TestComponent -->
<g id="node5" class="node">
<title>TestComponent</title>
<polygon fill="#ffffb3" stroke="black" points="129.94,-84.8 24.06,-84.8 24.06,-48.8 129.94,-48.8 129.94,-84.8"/>
<text text-anchor="middle" x="77" y="-62.6" font-family="Times,serif" font-size="14.00">TestComponent</text>
</g>
<!-- TestComponent&#45;&gt;OrdersModule -->
<g id="edge5" class="edge">
<title>TestComponent&#45;&gt;OrdersModule</title>
<path fill="none" stroke="black" d="M77,-85.09C77,-107.01 77,-140.8 77,-140.8 77,-140.8 539.89,-140.8 539.89,-140.8"/>
<polygon fill="black" stroke="black" points="539.89,-144.3 549.89,-140.8 539.89,-137.3 539.89,-144.3"/>
</g>
<!-- OrdersRoutingModule -->
<g id="node7" class="node">
<title>OrdersRoutingModule</title>
<polygon fill="#8dd3c7" stroke="black" points="1127.27,-84.8 1124.27,-88.8 1103.27,-88.8 1100.27,-84.8 984.73,-84.8 984.73,-48.8 1127.27,-48.8 1127.27,-84.8"/>
<text text-anchor="middle" x="1056" y="-62.6" font-family="Times,serif" font-size="14.00">OrdersRoutingModule</text>
</g>
<!-- OrdersRoutingModule&#45;&gt;OrdersModule -->
<g id="edge6" class="edge">
<title>OrdersRoutingModule&#45;&gt;OrdersModule</title>
<path fill="none" stroke="black" d="M1056,-85.09C1056,-107.01 1056,-140.8 1056,-140.8 1056,-140.8 657.91,-140.8 657.91,-140.8"/>
<polygon fill="black" stroke="black" points="657.91,-137.3 647.91,-140.8 657.91,-144.3 657.91,-137.3"/>
</g>
<!-- SharedModule -->
<g id="node8" class="node">
<title>SharedModule</title>
<polygon fill="#8dd3c7" stroke="black" points="966.43,-84.8 963.43,-88.8 942.43,-88.8 939.43,-84.8 867.57,-84.8 867.57,-48.8 966.43,-48.8 966.43,-84.8"/>
<text text-anchor="middle" x="917" y="-62.6" font-family="Times,serif" font-size="14.00">SharedModule</text>
</g>
<!-- SharedModule&#45;&gt;OrdersModule -->
<g id="edge7" class="edge">
<title>SharedModule&#45;&gt;OrdersModule</title>
<path fill="none" stroke="black" d="M917,-84.91C917,-104.14 917,-131.8 917,-131.8 917,-131.8 657.99,-131.8 657.99,-131.8"/>
<polygon fill="black" stroke="black" points="657.99,-128.3 647.99,-131.8 657.99,-135.3 657.99,-128.3"/>
</g>
</g>
</svg>
