<?xml version="1.0" encoding="UTF-8" standalone="no"?>
<!DOCTYPE svg PUBLIC "-//W3C//DTD SVG 1.1//EN"
 "http://www.w3.org/Graphics/SVG/1.1/DTD/svg11.dtd">
<!-- Generated by graphviz version 5.0.0 (20220707.1540)
 -->
<!-- Title: dependencies Pages: 1 -->
<svg width="4132pt" height="253pt"
 viewBox="0.00 0.00 4132.00 252.80" xmlns="http://www.w3.org/2000/svg" xmlns:xlink="http://www.w3.org/1999/xlink">
<g id="graph0" class="graph" transform="scale(1 1) rotate(0) translate(4 248.8)">
<title>dependencies</title>
<polygon fill="white" stroke="transparent" points="-4,4 -4,-248.8 4128,-248.8 4128,4 -4,4"/>
<text text-anchor="middle" x="2062" y="-8.2" font-family="sans-serif" font-size="14.00">dependencies</text>
<g id="clust1" class="cluster">
<title>cluster_AppModule</title>
<polygon fill="none" stroke="black" stroke-dasharray="1,5" points="8,-32.8 8,-236.8 403,-236.8 403,-32.8 8,-32.8"/>
</g>
<g id="clust2" class="cluster">
<title>cluster_AppModule_declarations</title>
<polygon fill="none" stroke="black" points="16,-40.8 16,-92.8 138,-92.8 138,-40.8 16,-40.8"/>
</g>
<g id="clust4" class="cluster">
<title>cluster_AppModule_imports</title>
<polygon fill="none" stroke="black" points="146,-40.8 146,-92.8 395,-92.8 395,-40.8 146,-40.8"/>
</g>
<g id="clust6" class="cluster">
<title>cluster_AppModule_bootstrap</title>
<polygon fill="none" stroke="black" points="156,-176.8 156,-228.8 280,-228.8 280,-176.8 156,-176.8"/>
</g>
<g id="clust14" class="cluster">
<title>cluster_ClientsModule</title>
<polygon fill="none" stroke="black" stroke-dasharray="1,5" points="1366,-32.8 1366,-160.8 2104,-160.8 2104,-32.8 1366,-32.8"/>
</g>
<g id="clust15" class="cluster">
<title>cluster_ClientsModule_declarations</title>
<polygon fill="none" stroke="black" points="1542,-40.8 1542,-92.8 2096,-92.8 2096,-40.8 1542,-40.8"/>
</g>
<g id="clust19" class="cluster">
<title>cluster_ClientsModule_imports</title>
<polygon fill="none" stroke="black" points="1374,-40.8 1374,-92.8 1534,-92.8 1534,-40.8 1374,-40.8"/>
</g>
<g id="clust29" class="cluster">
<title>cluster_CoreModule</title>
<polygon fill="none" stroke="black" stroke-dasharray="1,5" points="411,-100.8 411,-168.8 1358,-168.8 1358,-100.8 411,-100.8"/>
</g>
<g id="clust30" class="cluster">
<title>cluster_CoreModule_declarations</title>
<polygon fill="none" stroke="black" points="954,-108.8 954,-160.8 1350,-160.8 1350,-108.8 954,-108.8"/>
</g>
<g id="clust35" class="cluster">
<title>cluster_CoreModule_exports</title>
<polygon fill="none" stroke="black" points="419,-108.8 419,-160.8 946,-160.8 946,-108.8 419,-108.8"/>
</g>
<g id="clust38" class="cluster">
<title>cluster_OrdersModule</title>
<polygon fill="none" stroke="black" stroke-dasharray="1,5" points="2112,-32.8 2112,-160.8 3247,-160.8 3247,-32.8 2112,-32.8"/>
</g>
<g id="clust39" class="cluster">
<title>cluster_OrdersModule_declarations</title>
<polygon fill="none" stroke="black" points="2120,-40.8 2120,-92.8 2956,-92.8 2956,-40.8 2120,-40.8"/>
</g>
<g id="clust45" class="cluster">
<title>cluster_OrdersModule_imports</title>
<polygon fill="none" stroke="black" points="2964,-40.8 2964,-92.8 3239,-92.8 3239,-40.8 2964,-40.8"/>
</g>
<g id="clust55" class="cluster">
<title>cluster_PageNotFoundModule</title>
<polygon fill="none" stroke="black" stroke-dasharray="1,5" points="3706,-32.8 3706,-160.8 4116,-160.8 4116,-32.8 3706,-32.8"/>
</g>
<g id="clust56" class="cluster">
<title>cluster_PageNotFoundModule_declarations</title>
<polygon fill="none" stroke="black" points="3926,-40.8 3926,-92.8 4108,-92.8 4108,-40.8 3926,-40.8"/>
</g>
<g id="clust58" class="cluster">
<title>cluster_PageNotFoundModule_imports</title>
<polygon fill="none" stroke="black" points="3714,-40.8 3714,-92.8 3918,-92.8 3918,-40.8 3714,-40.8"/>
</g>
<g id="clust68" class="cluster">
<title>cluster_SharedModule</title>
<polygon fill="none" stroke="black" stroke-dasharray="1,5" points="3255,-100.8 3255,-168.8 3698,-168.8 3698,-100.8 3255,-100.8"/>
</g>
<g id="clust69" class="cluster">
<title>cluster_SharedModule_declarations</title>
<polygon fill="none" stroke="black" points="3484,-108.8 3484,-160.8 3690,-160.8 3690,-108.8 3484,-108.8"/>
</g>
<g id="clust73" class="cluster">
<title>cluster_SharedModule_exports</title>
<polygon fill="none" stroke="black" points="3263,-108.8 3263,-160.8 3476,-160.8 3476,-108.8 3263,-108.8"/>
</g>
<!-- AppComponent -->
<g id="node1" class="node">
<title>AppComponent</title>
<polygon fill="#ffffb3" stroke="black" points="129.94,-84.8 24.06,-84.8 24.06,-48.8 129.94,-48.8 129.94,-84.8"/>
<text text-anchor="middle" x="77" y="-62.6" font-family="Times,serif" font-size="14.00">AppComponent</text>
</g>
<!-- AppModule -->
<g id="node2" class="node">
<title>AppModule</title>
<polygon fill="#8dd3c7" stroke="black" points="259.66,-152.8 256.66,-156.8 235.66,-156.8 232.66,-152.8 176.34,-152.8 176.34,-116.8 259.66,-116.8 259.66,-152.8"/>
<text text-anchor="middle" x="218" y="-130.6" font-family="Times,serif" font-size="14.00">AppModule</text>
</g>
<!-- AppComponent&#45;&gt;AppModule -->
<g id="edge1" class="edge">
<title>AppComponent&#45;&gt;AppModule</title>
<path fill="none" stroke="black" d="M77,-85.02C77,-105.17 77,-134.8 77,-134.8 77,-134.8 166.08,-134.8 166.08,-134.8"/>
<polygon fill="black" stroke="black" points="166.08,-138.3 176.08,-134.8 166.08,-131.3 166.08,-138.3"/>
</g>
<!-- AppComponent  -->
<g id="node5" class="node">
<title>AppComponent </title>
<polygon fill="#80b1d3" stroke="black" points="272.44,-220.8 163.56,-220.8 163.56,-184.8 272.44,-184.8 272.44,-220.8"/>
<text text-anchor="middle" x="218" y="-198.6" font-family="Times,serif" font-size="14.00">AppComponent </text>
</g>
<!-- AppModule&#45;&gt;AppComponent  -->
<g id="edge4" class="edge">
<title>AppModule&#45;&gt;AppComponent </title>
<path fill="none" stroke="black" stroke-dasharray="1,5" d="M218,-153.02C218,-153.02 218,-174.53 218,-174.53"/>
<polygon fill="black" stroke="black" points="214.5,-174.53 218,-184.53 221.5,-174.53 214.5,-174.53"/>
</g>
<!-- AppRoutingModule -->
<g id="node3" class="node">
<title>AppRoutingModule</title>
<polygon fill="#8dd3c7" stroke="black" points="282.28,-84.8 279.28,-88.8 258.28,-88.8 255.28,-84.8 153.72,-84.8 153.72,-48.8 282.28,-48.8 282.28,-84.8"/>
<text text-anchor="middle" x="218" y="-62.6" font-family="Times,serif" font-size="14.00">AppRoutingModule</text>
</g>
<!-- AppRoutingModule&#45;&gt;AppModule -->
<g id="edge2" class="edge">
<title>AppRoutingModule&#45;&gt;AppModule</title>
<path fill="none" stroke="black" d="M218,-85.02C218,-85.02 218,-106.53 218,-106.53"/>
<polygon fill="black" stroke="black" points="214.5,-106.53 218,-116.53 221.5,-106.53 214.5,-106.53"/>
</g>
<!-- CoreModule -->
<g id="node4" class="node">
<title>CoreModule</title>
<polygon fill="#8dd3c7" stroke="black" points="387.27,-84.8 384.27,-88.8 363.27,-88.8 360.27,-84.8 300.73,-84.8 300.73,-48.8 387.27,-48.8 387.27,-84.8"/>
<text text-anchor="middle" x="344" y="-62.6" font-family="Times,serif" font-size="14.00">CoreModule</text>
</g>
<!-- CoreModule&#45;&gt;AppModule -->
<g id="edge3" class="edge">
<title>CoreModule&#45;&gt;AppModule</title>
<path fill="none" stroke="black" d="M329.54,-85.09C329.54,-107.01 329.54,-140.8 329.54,-140.8 329.54,-140.8 269.85,-140.8 269.85,-140.8"/>
<polygon fill="black" stroke="black" points="269.85,-137.3 259.85,-140.8 269.85,-144.3 269.85,-137.3"/>
</g>
<!-- FooterComponent  -->
<g id="node14" class="node">
<title>FooterComponent </title>
<polygon fill="#fb8072" stroke="black" points="937.88,-152.8 816.12,-152.8 816.12,-116.8 937.88,-116.8 937.88,-152.8"/>
<text text-anchor="middle" x="877" y="-130.6" font-family="Times,serif" font-size="14.00">FooterComponent </text>
</g>
<!-- CoreModule&#45;&gt;FooterComponent  -->
<g id="edge12" class="edge">
<title>CoreModule&#45;&gt;FooterComponent </title>
<path fill="none" stroke="black" stroke-dasharray="5,2" d="M387.62,-69.8C514.91,-69.8 877,-69.8 877,-69.8 877,-69.8 877,-106.69 877,-106.69"/>
<polygon fill="black" stroke="black" points="873.5,-106.69 877,-116.69 880.5,-106.69 873.5,-106.69"/>
</g>
<!-- HeaderComponent  -->
<g id="node15" class="node">
<title>HeaderComponent </title>
<polygon fill="#fb8072" stroke="black" points="798.75,-152.8 673.25,-152.8 673.25,-116.8 798.75,-116.8 798.75,-152.8"/>
<text text-anchor="middle" x="736" y="-130.6" font-family="Times,serif" font-size="14.00">HeaderComponent </text>
</g>
<!-- CoreModule&#45;&gt;HeaderComponent  -->
<g id="edge13" class="edge">
<title>CoreModule&#45;&gt;HeaderComponent </title>
<path fill="none" stroke="black" stroke-dasharray="5,2" d="M387.45,-74.8C489.51,-74.8 736,-74.8 736,-74.8 736,-74.8 736,-106.8 736,-106.8"/>
<polygon fill="black" stroke="black" points="732.5,-106.8 736,-116.8 739.5,-106.8 732.5,-106.8"/>
</g>
<!-- NavComponent  -->
<g id="node16" class="node">
<title>NavComponent </title>
<polygon fill="#fb8072" stroke="black" points="655.16,-152.8 546.84,-152.8 546.84,-116.8 655.16,-116.8 655.16,-152.8"/>
<text text-anchor="middle" x="601" y="-130.6" font-family="Times,serif" font-size="14.00">NavComponent </text>
</g>
<!-- CoreModule&#45;&gt;NavComponent  -->
<g id="edge14" class="edge">
<title>CoreModule&#45;&gt;NavComponent </title>
<path fill="none" stroke="black" stroke-dasharray="5,2" d="M387.31,-79.8C460.55,-79.8 601,-79.8 601,-79.8 601,-79.8 601,-106.79 601,-106.79"/>
<polygon fill="black" stroke="black" points="597.5,-106.79 601,-116.79 604.5,-106.79 597.5,-106.79"/>
</g>
<!-- OrdersModule  -->
<g id="node17" class="node">
<title>OrdersModule </title>
<polygon fill="#fb8072" stroke="black" points="528.65,-152.8 427.35,-152.8 427.35,-116.8 528.65,-116.8 528.65,-152.8"/>
<text text-anchor="middle" x="478" y="-130.6" font-family="Times,serif" font-size="14.00">OrdersModule </text>
</g>
<!-- CoreModule&#45;&gt;OrdersModule  -->
<g id="edge15" class="edge">
<title>CoreModule&#45;&gt;OrdersModule </title>
<path fill="none" stroke="black" stroke-dasharray="5,2" d="M358.46,-85.07C358.46,-103.36 358.46,-128.8 358.46,-128.8 358.46,-128.8 417.3,-128.8 417.3,-128.8"/>
<polygon fill="black" stroke="black" points="417.3,-132.3 427.3,-128.8 417.3,-125.3 417.3,-132.3"/>
</g>
<!-- PageAddClientComponent -->
<g id="node6" class="node">
<title>PageAddClientComponent</title>
<polygon fill="#ffffb3" stroke="black" points="2088.38,-84.8 1921.62,-84.8 1921.62,-48.8 2088.38,-48.8 2088.38,-84.8"/>
<text text-anchor="middle" x="2005" y="-62.6" font-family="Times,serif" font-size="14.00">PageAddClientComponent</text>
</g>
<!-- ClientsModule -->
<g id="node9" class="node">
<title>ClientsModule</title>
<polygon fill="#8dd3c7" stroke="black" points="1777.72,-152.8 1774.72,-156.8 1753.72,-156.8 1750.72,-152.8 1678.28,-152.8 1678.28,-116.8 1777.72,-116.8 1777.72,-152.8"/>
<text text-anchor="middle" x="1728" y="-130.6" font-family="Times,serif" font-size="14.00">ClientsModule</text>
</g>
<!-- PageAddClientComponent&#45;&gt;ClientsModule -->
<g id="edge5" class="edge">
<title>PageAddClientComponent&#45;&gt;ClientsModule</title>
<path fill="none" stroke="black" d="M2005,-84.83C2005,-101.86 2005,-124.8 2005,-124.8 2005,-124.8 1787.84,-124.8 1787.84,-124.8"/>
<polygon fill="black" stroke="black" points="1787.84,-121.3 1777.84,-124.8 1787.84,-128.3 1787.84,-121.3"/>
</g>
<!-- PageEditClientComponent -->
<g id="node7" class="node">
<title>PageEditClientComponent</title>
<polygon fill="#ffffb3" stroke="black" points="1904.1,-84.8 1737.9,-84.8 1737.9,-48.8 1904.1,-48.8 1904.1,-84.8"/>
<text text-anchor="middle" x="1821" y="-62.6" font-family="Times,serif" font-size="14.00">PageEditClientComponent</text>
</g>
<!-- PageEditClientComponent&#45;&gt;ClientsModule -->
<g id="edge6" class="edge">
<title>PageEditClientComponent&#45;&gt;ClientsModule</title>
<path fill="none" stroke="black" d="M1757.78,-85.02C1757.78,-85.02 1757.78,-106.53 1757.78,-106.53"/>
<polygon fill="black" stroke="black" points="1754.28,-106.53 1757.78,-116.53 1761.28,-106.53 1754.28,-106.53"/>
</g>
<!-- PageListClientsComponent -->
<g id="node8" class="node">
<title>PageListClientsComponent</title>
<polygon fill="#ffffb3" stroke="black" points="1719.99,-84.8 1550.01,-84.8 1550.01,-48.8 1719.99,-48.8 1719.99,-84.8"/>
<text text-anchor="middle" x="1635" y="-62.6" font-family="Times,serif" font-size="14.00">PageListClientsComponent</text>
</g>
<!-- PageListClientsComponent&#45;&gt;ClientsModule -->
<g id="edge7" class="edge">
<title>PageListClientsComponent&#45;&gt;ClientsModule</title>
<path fill="none" stroke="black" d="M1699.19,-85.02C1699.19,-85.02 1699.19,-106.53 1699.19,-106.53"/>
<polygon fill="black" stroke="black" points="1695.69,-106.53 1699.19,-116.53 1702.69,-106.53 1695.69,-106.53"/>
</g>
<!-- ClientsRoutingModule -->
<g id="node10" class="node">
<title>ClientsRoutingModule</title>
<polygon fill="#8dd3c7" stroke="black" points="1526.34,-84.8 1523.34,-88.8 1502.34,-88.8 1499.34,-84.8 1381.66,-84.8 1381.66,-48.8 1526.34,-48.8 1526.34,-84.8"/>
<text text-anchor="middle" x="1454" y="-62.6" font-family="Times,serif" font-size="14.00">ClientsRoutingModule</text>
</g>
<!-- ClientsRoutingModule&#45;&gt;ClientsModule -->
<g id="edge8" class="edge">
<title>ClientsRoutingModule&#45;&gt;ClientsModule</title>
<path fill="none" stroke="black" d="M1454,-85.02C1454,-105.17 1454,-134.8 1454,-134.8 1454,-134.8 1668.38,-134.8 1668.38,-134.8"/>
<polygon fill="black" stroke="black" points="1668.38,-138.3 1678.38,-134.8 1668.38,-131.3 1668.38,-138.3"/>
</g>
<!-- FooterComponent -->
<g id="node11" class="node">
<title>FooterComponent</title>
<polygon fill="#ffffb3" stroke="black" points="1341.88,-152.8 1224.12,-152.8 1224.12,-116.8 1341.88,-116.8 1341.88,-152.8"/>
<text text-anchor="middle" x="1283" y="-130.6" font-family="Times,serif" font-size="14.00">FooterComponent</text>
</g>
<!-- FooterComponent&#45;&gt;CoreModule -->
<g id="edge9" class="edge">
<title>FooterComponent&#45;&gt;CoreModule</title>
<path fill="none" stroke="black" d="M1283,-116.65C1283,-93.04 1283,-54.8 1283,-54.8 1283,-54.8 397.41,-54.8 397.41,-54.8"/>
<polygon fill="black" stroke="black" points="397.41,-51.3 387.41,-54.8 397.41,-58.3 397.41,-51.3"/>
</g>
<!-- HeaderComponent -->
<g id="node12" class="node">
<title>HeaderComponent</title>
<polygon fill="#ffffb3" stroke="black" points="1205.75,-152.8 1084.25,-152.8 1084.25,-116.8 1205.75,-116.8 1205.75,-152.8"/>
<text text-anchor="middle" x="1145" y="-130.6" font-family="Times,serif" font-size="14.00">HeaderComponent</text>
</g>
<!-- HeaderComponent&#45;&gt;CoreModule -->
<g id="edge10" class="edge">
<title>HeaderComponent&#45;&gt;CoreModule</title>
<path fill="none" stroke="black" d="M1145,-116.64C1145,-94.45 1145,-59.8 1145,-59.8 1145,-59.8 397.35,-59.8 397.35,-59.8"/>
<polygon fill="black" stroke="black" points="397.35,-56.3 387.35,-59.8 397.35,-63.3 397.35,-56.3"/>
</g>
<!-- NavComponent -->
<g id="node13" class="node">
<title>NavComponent</title>
<polygon fill="#ffffb3" stroke="black" points="1066.16,-152.8 961.84,-152.8 961.84,-116.8 1066.16,-116.8 1066.16,-152.8"/>
<text text-anchor="middle" x="1014" y="-130.6" font-family="Times,serif" font-size="14.00">NavComponent</text>
</g>
<!-- NavComponent&#45;&gt;CoreModule -->
<g id="edge11" class="edge">
<title>NavComponent&#45;&gt;CoreModule</title>
<path fill="none" stroke="black" d="M1014,-116.77C1014,-96.03 1014,-64.8 1014,-64.8 1014,-64.8 397.44,-64.8 397.44,-64.8"/>
<polygon fill="black" stroke="black" points="397.44,-61.3 387.44,-64.8 397.44,-68.3 397.44,-61.3"/>
</g>
<!-- FormOrderComponent -->
<g id="node18" class="node">
<title>FormOrderComponent</title>
<polygon fill="#ffffb3" stroke="black" points="2948.32,-84.8 2803.68,-84.8 2803.68,-48.8 2948.32,-48.8 2948.32,-84.8"/>
<text text-anchor="middle" x="2876" y="-62.6" font-family="Times,serif" font-size="14.00">FormOrderComponent</text>
</g>
<!-- OrdersModule -->
<g id="node23" class="node">
<title>OrdersModule</title>
<polygon fill="#8dd3c7" stroke="black" points="2751.65,-152.8 2748.65,-156.8 2727.65,-156.8 2724.65,-152.8 2654.35,-152.8 2654.35,-116.8 2751.65,-116.8 2751.65,-152.8"/>
<text text-anchor="middle" x="2703" y="-130.6" font-family="Times,serif" font-size="14.00">OrdersModule</text>
</g>
<!-- FormOrderComponent&#45;&gt;OrdersModule -->
<g id="edge16" class="edge">
<title>FormOrderComponent&#45;&gt;OrdersModule</title>
<path fill="none" stroke="black" d="M2876,-84.82C2876,-102.17 2876,-125.8 2876,-125.8 2876,-125.8 2761.65,-125.8 2761.65,-125.8"/>
<polygon fill="black" stroke="black" points="2761.65,-122.3 2751.65,-125.8 2761.65,-129.3 2761.65,-122.3"/>
</g>
<!-- PageAddOrderComponent -->
<g id="node19" class="node">
<title>PageAddOrderComponent</title>
<polygon fill="#ffffb3" stroke="black" points="2785.8,-84.8 2620.2,-84.8 2620.2,-48.8 2785.8,-48.8 2785.8,-84.8"/>
<text text-anchor="middle" x="2703" y="-62.6" font-family="Times,serif" font-size="14.00">PageAddOrderComponent</text>
</g>
<!-- PageAddOrderComponent&#45;&gt;OrdersModule -->
<g id="edge17" class="edge">
<title>PageAddOrderComponent&#45;&gt;OrdersModule</title>
<path fill="none" stroke="black" d="M2703,-85.02C2703,-85.02 2703,-106.53 2703,-106.53"/>
<polygon fill="black" stroke="black" points="2699.5,-106.53 2703,-116.53 2706.5,-106.53 2699.5,-106.53"/>
</g>
<!-- PageEditOrderComponent -->
<g id="node20" class="node">
<title>PageEditOrderComponent</title>
<polygon fill="#ffffb3" stroke="black" points="2602.03,-84.8 2437.97,-84.8 2437.97,-48.8 2602.03,-48.8 2602.03,-84.8"/>
<text text-anchor="middle" x="2520" y="-62.6" font-family="Times,serif" font-size="14.00">PageEditOrderComponent</text>
</g>
<!-- PageEditOrderComponent&#45;&gt;OrdersModule -->
<g id="edge18" class="edge">
<title>PageEditOrderComponent&#45;&gt;OrdersModule</title>
<path fill="none" stroke="black" d="M2520,-84.91C2520,-104.14 2520,-131.8 2520,-131.8 2520,-131.8 2643.96,-131.8 2643.96,-131.8"/>
<polygon fill="black" stroke="black" points="2643.96,-135.3 2653.96,-131.8 2643.96,-128.3 2643.96,-135.3"/>
</g>
<!-- PageListOrdersComponent -->
<g id="node21" class="node">
<title>PageListOrdersComponent</title>
<polygon fill="#ffffb3" stroke="black" points="2420.42,-84.8 2251.58,-84.8 2251.58,-48.8 2420.42,-48.8 2420.42,-84.8"/>
<text text-anchor="middle" x="2336" y="-62.6" font-family="Times,serif" font-size="14.00">PageListOrdersComponent</text>
</g>
<!-- PageListOrdersComponent&#45;&gt;OrdersModule -->
<g id="edge19" class="edge">
<title>PageListOrdersComponent&#45;&gt;OrdersModule</title>
<path fill="none" stroke="black" d="M2336,-84.97C2336,-106.3 2336,-138.8 2336,-138.8 2336,-138.8 2644.27,-138.8 2644.27,-138.8"/>
<polygon fill="black" stroke="black" points="2644.27,-142.3 2654.27,-138.8 2644.27,-135.3 2644.27,-142.3"/>
</g>
<!-- TestComponent -->
<g id="node22" class="node">
<title>TestComponent</title>
<polygon fill="#ffffb3" stroke="black" points="2233.94,-84.8 2128.06,-84.8 2128.06,-48.8 2233.94,-48.8 2233.94,-84.8"/>
<text text-anchor="middle" x="2181" y="-62.6" font-family="Times,serif" font-size="14.00">TestComponent</text>
</g>
<!-- TestComponent&#45;&gt;OrdersModule -->
<g id="edge20" class="edge">
<title>TestComponent&#45;&gt;OrdersModule</title>
<path fill="none" stroke="black" d="M2181,-85.12C2181,-108.46 2181,-145.8 2181,-145.8 2181,-145.8 2643.89,-145.8 2643.89,-145.8"/>
<polygon fill="black" stroke="black" points="2643.89,-149.3 2653.89,-145.8 2643.89,-142.3 2643.89,-149.3"/>
</g>
<!-- OrdersRoutingModule -->
<g id="node24" class="node">
<title>OrdersRoutingModule</title>
<polygon fill="#8dd3c7" stroke="black" points="3114.27,-84.8 3111.27,-88.8 3090.27,-88.8 3087.27,-84.8 2971.73,-84.8 2971.73,-48.8 3114.27,-48.8 3114.27,-84.8"/>
<text text-anchor="middle" x="3043" y="-62.6" font-family="Times,serif" font-size="14.00">OrdersRoutingModule</text>
</g>
<!-- OrdersRoutingModule&#45;&gt;OrdersModule -->
<g id="edge21" class="edge">
<title>OrdersRoutingModule&#45;&gt;OrdersModule</title>
<path fill="none" stroke="black" d="M3043,-85.02C3043,-105.17 3043,-134.8 3043,-134.8 3043,-134.8 2761.71,-134.8 2761.71,-134.8"/>
<polygon fill="black" stroke="black" points="2761.71,-131.3 2751.71,-134.8 2761.71,-138.3 2761.71,-131.3"/>
</g>
<!-- SharedModule -->
<g id="node25" class="node">
<title>SharedModule</title>
<polygon fill="#8dd3c7" stroke="black" points="3231.43,-84.8 3228.43,-88.8 3207.43,-88.8 3204.43,-84.8 3132.57,-84.8 3132.57,-48.8 3231.43,-48.8 3231.43,-84.8"/>
<text text-anchor="middle" x="3182" y="-62.6" font-family="Times,serif" font-size="14.00">SharedModule</text>
</g>
<!-- SharedModule&#45;&gt;OrdersModule -->
<g id="edge22" class="edge">
<title>SharedModule&#45;&gt;OrdersModule</title>
<path fill="none" stroke="black" d="M3182,-85.05C3182,-107.82 3182,-143.8 3182,-143.8 3182,-143.8 2762.01,-143.8 2762.01,-143.8"/>
<polygon fill="black" stroke="black" points="2762.01,-140.3 2752.01,-143.8 2762.01,-147.3 2762.01,-140.3"/>
</g>
<!-- BtnComponent  -->
<g id="node31" class="node">
<title>BtnComponent </title>
<polygon fill="#fb8072" stroke="black" points="3467.56,-152.8 3362.44,-152.8 3362.44,-116.8 3467.56,-116.8 3467.56,-152.8"/>
<text text-anchor="middle" x="3415" y="-130.6" font-family="Times,serif" font-size="14.00">BtnComponent </text>
</g>
<!-- SharedModule&#45;&gt;BtnComponent  -->
<g id="edge27" class="edge">
<title>SharedModule&#45;&gt;BtnComponent </title>
<path fill="none" stroke="black" stroke-dasharray="5,2" d="M3231.41,-70.8C3299.81,-70.8 3415,-70.8 3415,-70.8 3415,-70.8 3415,-106.63 3415,-106.63"/>
<polygon fill="black" stroke="black" points="3411.5,-106.63 3415,-116.63 3418.5,-106.63 3411.5,-106.63"/>
</g>
<!-- TotalPipe  -->
<g id="node32" class="node">
<title>TotalPipe </title>
<polygon fill="#fb8072" stroke="black" points="3344.93,-152.8 3271.07,-152.8 3271.07,-116.8 3344.93,-116.8 3344.93,-152.8"/>
<text text-anchor="middle" x="3308" y="-130.6" font-family="Times,serif" font-size="14.00">TotalPipe </text>
</g>
<!-- SharedModule&#45;&gt;TotalPipe  -->
<g id="edge28" class="edge">
<title>SharedModule&#45;&gt;TotalPipe </title>
<path fill="none" stroke="black" stroke-dasharray="5,2" d="M3231.44,-77.8C3266.74,-77.8 3308,-77.8 3308,-77.8 3308,-77.8 3308,-106.76 3308,-106.76"/>
<polygon fill="black" stroke="black" points="3304.5,-106.76 3308,-116.76 3311.5,-106.76 3304.5,-106.76"/>
</g>
<!-- PageNotFoundComponent -->
<g id="node26" class="node">
<title>PageNotFoundComponent</title>
<polygon fill="#ffffb3" stroke="black" points="4099.83,-84.8 3934.17,-84.8 3934.17,-48.8 4099.83,-48.8 4099.83,-84.8"/>
<text text-anchor="middle" x="4017" y="-62.6" font-family="Times,serif" font-size="14.00">PageNotFoundComponent</text>
</g>
<!-- PageNotFoundModule -->
<g id="node27" class="node">
<title>PageNotFoundModule</title>
<polygon fill="#8dd3c7" stroke="black" points="3987.55,-152.8 3984.55,-156.8 3963.55,-156.8 3960.55,-152.8 3844.45,-152.8 3844.45,-116.8 3987.55,-116.8 3987.55,-152.8"/>
<text text-anchor="middle" x="3916" y="-130.6" font-family="Times,serif" font-size="14.00">PageNotFoundModule</text>
</g>
<!-- PageNotFoundComponent&#45;&gt;PageNotFoundModule -->
<g id="edge23" class="edge">
<title>PageNotFoundComponent&#45;&gt;PageNotFoundModule</title>
<path fill="none" stroke="black" d="M3961.06,-85.02C3961.06,-85.02 3961.06,-106.53 3961.06,-106.53"/>
<polygon fill="black" stroke="black" points="3957.56,-106.53 3961.06,-116.53 3964.56,-106.53 3957.56,-106.53"/>
</g>
<!-- PageNotFoundRoutingModule -->
<g id="node28" class="node">
<title>PageNotFoundRoutingModule</title>
<polygon fill="#8dd3c7" stroke="black" points="3910.17,-84.8 3907.17,-88.8 3886.17,-88.8 3883.17,-84.8 3721.83,-84.8 3721.83,-48.8 3910.17,-48.8 3910.17,-84.8"/>
<text text-anchor="middle" x="3816" y="-62.6" font-family="Times,serif" font-size="14.00">PageNotFoundRoutingModule</text>
</g>
<!-- PageNotFoundRoutingModule&#45;&gt;PageNotFoundModule -->
<g id="edge24" class="edge">
<title>PageNotFoundRoutingModule&#45;&gt;PageNotFoundModule</title>
<path fill="none" stroke="black" d="M3877.28,-85.02C3877.28,-85.02 3877.28,-106.53 3877.28,-106.53"/>
<polygon fill="black" stroke="black" points="3873.78,-106.53 3877.28,-116.53 3880.78,-106.53 3873.78,-106.53"/>
</g>
<!-- BtnComponent -->
<g id="node29" class="node">
<title>BtnComponent</title>
<polygon fill="#ffffb3" stroke="black" points="3681.56,-152.8 3580.44,-152.8 3580.44,-116.8 3681.56,-116.8 3681.56,-152.8"/>
<text text-anchor="middle" x="3631" y="-130.6" font-family="Times,serif" font-size="14.00">BtnComponent</text>
</g>
<!-- BtnComponent&#45;&gt;SharedModule -->
<g id="edge25" class="edge">
<title>BtnComponent&#45;&gt;SharedModule</title>
<path fill="none" stroke="black" d="M3631,-116.71C3631,-93.67 3631,-56.8 3631,-56.8 3631,-56.8 3241.34,-56.8 3241.34,-56.8"/>
<polygon fill="black" stroke="black" points="3241.34,-53.3 3231.34,-56.8 3241.34,-60.3 3241.34,-53.3"/>
</g>
<!-- TotalPipe -->
<g id="node30" class="node">
<title>TotalPipe</title>
<polygon fill="#ffffb3" stroke="black" points="3562.44,-152.8 3491.56,-152.8 3491.56,-116.8 3562.44,-116.8 3562.44,-152.8"/>
<text text-anchor="middle" x="3527" y="-130.6" font-family="Times,serif" font-size="14.00">TotalPipe</text>
</g>
<!-- TotalPipe&#45;&gt;SharedModule -->
<g id="edge26" class="edge">
<title>TotalPipe&#45;&gt;SharedModule</title>
<path fill="none" stroke="black" d="M3527,-116.52C3527,-95.48 3527,-63.8 3527,-63.8 3527,-63.8 3241.43,-63.8 3241.43,-63.8"/>
<polygon fill="black" stroke="black" points="3241.43,-60.3 3231.43,-63.8 3241.43,-67.3 3241.43,-60.3"/>
</g>
</g>
</svg>
